<svg xmlns="http://www.w3.org/2000/svg" xmlns:xlink="http://www.w3.org/1999/xlink" width="1080" zoomAndPan="magnify" viewBox="0 0 810 540.000001" height="720" preserveAspectRatio="xMidYMid meet" version="1.0"><defs><clipPath id="729fb66f7c"><path d="M 145.996094 67.039062 L 664.785156 67.039062 L 664.785156 455.566406 L 145.996094 455.566406 Z M 145.996094 67.039062 " clip-rule="nonzero"/></clipPath></defs><g clip-path="url(#729fb66f7c)"><path fill="#000000" d="M 155.726562 67.039062 L 655.054688 67.039062 C 657.632812 67.039062 660.109375 68.066406 661.933594 69.890625 C 663.757812 71.714844 664.785156 74.191406 664.785156 76.769531 L 664.785156 445.835938 C 664.785156 448.417969 663.757812 450.890625 661.933594 452.714844 C 660.109375 454.542969 657.632812 455.566406 655.054688 455.566406 L 155.726562 455.566406 C 153.148438 455.566406 150.671875 454.542969 148.847656 452.714844 C 147.019531 450.890625 145.996094 448.417969 145.996094 445.835938 L 145.996094 76.769531 C 145.996094 74.191406 147.019531 71.714844 148.847656 69.890625 C 150.671875 68.066406 153.148438 67.039062 155.726562 67.039062 " fill-opacity="1" fill-rule="nonzero"/></g></svg>