<?xml version="1.0" encoding="UTF-8"?>
<svg id="Layer_1" data-name="Layer 1" xmlns="http://www.w3.org/2000/svg" xmlns:xlink="http://www.w3.org/1999/xlink" viewBox="0 0 441.89 640.46">
  <defs>
    <style>
      .cls-1, .cls-2 {
        fill: none;
      }

      .cls-1, .cls-3 {
        stroke: #231f20;
        stroke-miterlimit: 10;
      }

      .cls-4 {
        fill: url(#linear-gradient-2);
      }

      .cls-3, .cls-5 {
        fill: url(#linear-gradient);
      }
    </style>
    <linearGradient id="linear-gradient" x1="220.95" y1="561.72" x2="220.95" y2="366.67" gradientUnits="userSpaceOnUse">
      <stop offset="0" stop-color="#381387"/>
      <stop offset=".21" stop-color="#3a128a"/>
      <stop offset=".41" stop-color="#411196"/>
      <stop offset=".61" stop-color="#4e0fa9"/>
      <stop offset=".8" stop-color="#600dc3"/>
      <stop offset=".99" stop-color="#760ae5"/>
      <stop offset="1" stop-color="#780ae8"/>
    </linearGradient>
    <linearGradient id="linear-gradient-2" x1="220.95" y1="640.46" x2="220.95" y2="0" xlink:href="#linear-gradient"/>
  </defs>
  <path class="cls-3" d="M324.59,464.2c0,53.86-46.41,97.52-103.64,97.52s-103.65-43.66-103.65-97.52,46.41-97.52,103.65-97.52,103.64,43.66,103.64,97.52Z"/>
  <path class="cls-4" d="M412.5,0H29.39C13.16,0,0,12.39,0,27.66V612.81c0,15.27,13.16,27.65,29.39,27.65H412.5c16.23,0,29.39-12.38,29.39-27.65V27.66c0-15.27-13.16-27.66-29.39-27.66ZM220.95,44.41c54.21,0,98.16,41.35,98.16,92.37s-43.95,92.37-98.16,92.37-98.18-41.35-98.18-92.37,43.95-92.37,98.18-92.37Zm0,564.14c-84.74,0-153.43-64.63-153.43-144.36s68.69-144.36,153.43-144.36,153.42,64.63,153.42,144.36-68.69,144.36-153.42,144.36Zm187.69,15.48c-8.44,0-15.29-6.43-15.29-14.37s6.85-14.38,15.29-14.38,15.28,6.43,15.28,14.38-6.84,14.37-15.28,14.37Z"/>
  <path class="cls-2" d="M220.95,319.84c-84.74,0-153.43,64.63-153.43,144.36s68.69,144.36,153.43,144.36,153.42-64.63,153.42-144.36-68.69-144.36-153.42-144.36Zm0,241.88c-57.25,0-103.65-43.66-103.65-97.52s46.41-97.52,103.65-97.52,103.64,43.66,103.64,97.52-46.41,97.52-103.64,97.52Z"/>
  <path class="cls-1" d="M324.59,464.2c0,53.86-46.41,97.52-103.64,97.52s-103.65-43.66-103.65-97.52,46.41-97.52,103.65-97.52,103.64,43.66,103.64,97.52Z"/>
  <path class="cls-5" d="M324.59,464.2c0,53.86-46.41,97.52-103.64,97.52s-103.65-43.66-103.65-97.52,46.41-97.52,103.65-97.52,103.64,43.66,103.64,97.52Z"/>
  <path class="cls-2" d="M423.92,609.66c0,7.94-6.84,14.37-15.28,14.37s-15.29-6.43-15.29-14.37,6.85-14.38,15.29-14.38,15.28,6.43,15.28,14.38Z"/>
  <path class="cls-2" d="M319.11,136.77c0,51.01-43.95,92.37-98.16,92.37s-98.18-41.35-98.18-92.37,43.95-92.37,98.18-92.37,98.16,41.35,98.16,92.37Z"/>
</svg>