<?xml version="1.0" encoding="UTF-8"?>
<svg id="Layer_1" data-name="Layer 1" xmlns="http://www.w3.org/2000/svg" viewBox="0 0 1000 1000">
  <defs>
    <style>
      .cls-1 {
        fill: #fff;
      }
    </style>
  </defs>
  <path class="cls-1" d="M807.9,233.14v16.2h-78.16v1.14l-1.14-1.14h-194.26v78.16h-3.92l-78.16-78.16H182.62v-16.2H66.54l-1.16,1.16v-1.16h-16.2l55.28,55.28v156.32h156.32v165.8l18.16,18.16,11.44,11.44,9.48,9.48,39.08,39.08V366.58H182.62v-39.08h195.4v400.28l39.08,39.08,9.48-9.48,18.16-18.14,11.44-11.46V363.8l2.78,2.78,13.42,13.42,25.66,25.66,1.96,1.96,27.64,27.64,6.7,6.7,2.78,2.78,18.16,18.16,18.14,18.14,37.12,37.12,1.96-1.96v3.92l2.78,2.78,22.9,22.9,27.64,27.64,24.84,24.84,2.78,2.78,36.3,36.3,2.78,2.78h-120.02v-64.76l-1.96-1.96-11.44-11.44-25.68-25.68-13.4-13.4-25.68-25.68v221.08h262.92l6.72-6.7,3.92-3.94,39.08-39.08v-24.52l-153.54-153.54,6.7-6.7,20.94-20.92,8.66-8.68,46.6-46.6-1.96-1.96h3.92l25.68-25.68,13.4-13.4,14.24-14.22,15.36-15.38,39.08-39.08v-1.64l.82,.82,8.66-8.66,18.98-18.96,10.62-10.64,17-17,8.68-8.68h-142.92Zm-78.16,110.56l-22.88,22.88-13.42,13.42-2.78,2.78-22.88,22.88-1.96,1.98-14.24,14.22-13.4,13.4-25.68-25.68v-82.08h133.44l-16.2,16.2Zm156.32-101.06v-1.64l.82,.82-.82,.82Z"/>
  <text/>
</svg>