<?xml version="1.0" encoding="UTF-8"?>
<svg id="Layer_1" data-name="Layer 1" xmlns="http://www.w3.org/2000/svg" xmlns:xlink="http://www.w3.org/1999/xlink" viewBox="0 0 1000 1000">
  <defs>
    <style>
      .cls-1 {
        fill: url(#New_Gradient_Swatch_1_copy);
      }

      .cls-2 {
        fill: #fff;
      }
    </style>
    <linearGradient id="New_Gradient_Swatch_1_copy" data-name="New Gradient Swatch 1 copy" x1="456.18" y1="475.72" x2="950.82" y2="475.72" gradientUnits="userSpaceOnUse">
      <stop offset=".04" stop-color="#502b79"/>
      <stop offset=".22" stop-color="#462e7e"/>
      <stop offset=".51" stop-color="#2d378d"/>
      <stop offset=".55" stop-color="#293990"/>
      <stop offset=".87" stop-color="#0862ab"/>
      <stop offset=".99" stop-color="#0b7998"/>
    </linearGradient>
  </defs>
  <g>
    <path class="cls-1" d="M807.9,233.14v16.2h-78.16v1.14l-1.14-1.14h-194.26v78.16h-3.92l-2.78-2.78-27.64-27.64-43.82-43.82v110.54l2.78,2.78,13.42,13.42,22.88,22.88,2.78,2.78,1.96,1.96,27.64,27.64,6.7,6.7,2.78,2.78,18.16,18.16,18.14,18.14,37.12,37.12,1.96-1.96v3.92l2.78,2.78,22.9,22.9,13.4,13.4,2.78,2.78,11.46,11.46,24.84,24.84,2.78,2.78,27.64,27.64,8.66,8.66,2.78,2.78h-120.02v-64.76l-1.96-1.96-11.44-11.44-16.18-16.18-9.5-9.5-13.4-13.4-25.68-25.68v221.08h262.92l6.72-6.7,3.92-3.94,23.7-23.7,4.74-4.74,10.64-10.64v-24.52l-15.36-15.36-23.72-23.72-3.92-3.92-35.16-35.16-3.92-3.92-16.18-16.18-55.28-55.28,6.7-6.7,20.94-20.92,8.66-8.68,46.6-46.6-1.96-1.96h3.92l25.68-25.68,3.92-3.92,9.48-9.48,14.24-14.22,15.36-15.38,39.08-39.08v-1.64l.82,.82,8.66-8.66,18.98-18.96,10.62-10.64,17-17,8.68-8.68h-142.92Zm-78.16,110.56l-8.66,8.66-14.22,14.22-13.42,13.42-2.78,2.78-22.88,22.88-1.96,1.98-14.24,14.22-13.4,13.4-25.68-25.68v-82.08h133.44l-16.2,16.2Zm156.32-101.06v-1.64l.82,.82-.82,.82Z"/>
    <polygon class="cls-2" points="456.18 253.26 456.18 727.78 444.74 739.24 426.58 757.38 417.1 766.86 378.02 727.78 378.02 327.5 182.62 327.5 182.62 366.58 338.94 366.58 338.94 688.7 334.2 683.96 329.46 679.22 306.56 656.32 299.86 649.62 290.38 640.14 278.94 628.7 260.78 610.54 260.78 444.74 104.46 444.74 104.46 288.42 49.18 233.14 65.38 233.14 65.38 234.3 66.54 233.14 182.62 233.14 182.62 249.34 452.26 249.34 456.18 253.26"/>
  </g>
  <text/>
</svg>